# xmcd CD database file
#
# Track frame offsets:
#	150
#	31737
#	67497
#	87002
#	110530
#	139777
#
# Disc length: 2347 seconds
#
# Revision: 3
# Processed by: cddbd v1.5.2PL0 Copyright (c) Steve Scherf et al.
# Submitted via: CDex 1.51
#
DISCID=4e092906
DTITLE=Dexter Gordon with Lionel Hampton - Lullabye Of Birdland
DYEAR=1994
DGENRE=Jazz
TTITLE0=Cute
TTITLE1=They Say That Falling In Love Is Wonderful
TTITLE2=Lullabye Of Birdland
TTITLE3=I Should Care
TTITLE4=Seven Come Eleven
TTITLE5=Blues For Gates
EXTD=YEAR: 1994
EXTT0=
EXTT1=
EXTT2=
EXTT3=
EXTT4=
EXTT5=
PLAYORDER=
